<svg width="60.000000" height="12.000000" viewBox="0 0 60 12" fill="none" xmlns="http://www.w3.org/2000/svg" xmlns:xlink="http://www.w3.org/1999/xlink">
	<desc>
			Created with Pixso.
	</desc>
	<defs>
		<clipPath id="clip120_7164">
			<rect id="Star 1" width="12.000000" height="12.000000" fill="white" fill-opacity="0"/>
		</clipPath>
		<clipPath id="clip120_7167">
			<rect id="Star 2" width="12.000000" height="12.000000" transform="translate(12.000000 0.000000)" fill="white" fill-opacity="0"/>
		</clipPath>
		<clipPath id="clip120_7170">
			<rect id="Star 3" width="12.000000" height="12.000000" transform="translate(24.000000 0.000000)" fill="white" fill-opacity="0"/>
		</clipPath>
		<clipPath id="clip120_7173">
			<rect id="Star 4" width="12.000000" height="12.000000" transform="translate(36.000000 0.000000)" fill="white" fill-opacity="0"/>
		</clipPath>
		<clipPath id="clip120_7176">
			<rect id="Star 5" width="12.000000" height="12.000000" transform="translate(48.000000 0.000000)" fill="white" fill-opacity="0"/>
		</clipPath>
	</defs>
	<rect id="Star 1" width="12.000000" height="12.000000" fill="#FFFFFF" fill-opacity="0"/>
	<g clip-path="url(#clip120_7164)">
		<path id="Vector" d="M6.2 8.94L8.57 10.43C8.87 10.62 9.24 10.34 9.15 9.99L8.47 7.3C8.45 7.23 8.45 7.15 8.48 7.07C8.5 7 8.54 6.93 8.6 6.88L10.72 5.12C11 4.89 10.86 4.43 10.5 4.4L7.73 4.22C7.66 4.22 7.59 4.19 7.53 4.15C7.47 4.1 7.42 4.04 7.39 3.97L6.36 1.37C6.33 1.3 6.28 1.23 6.22 1.19C6.15 1.14 6.07 1.12 6 1.12C5.92 1.12 5.84 1.14 5.77 1.19C5.71 1.23 5.66 1.3 5.63 1.37L4.6 3.97C4.57 4.04 4.52 4.1 4.46 4.15C4.4 4.19 4.33 4.22 4.26 4.22L1.49 4.4C1.13 4.43 0.99 4.89 1.27 5.12L3.39 6.88C3.45 6.93 3.49 7 3.51 7.07C3.54 7.15 3.54 7.23 3.52 7.3L2.89 9.79C2.78 10.22 3.23 10.56 3.59 10.33L5.79 8.94C5.85 8.9 5.92 8.88 6 8.88C6.07 8.88 6.14 8.9 6.2 8.94L6.2 8.94Z" fill="#FF8A00" fill-opacity="1.000000" fill-rule="nonzero"/>
	</g>
	<rect id="Star 2" width="12.000000" height="12.000000" transform="translate(12.000000 0.000000)" fill="#FFFFFF" fill-opacity="0"/>
	<g clip-path="url(#clip120_7167)">
		<path id="Vector" d="M18.2 8.94L20.57 10.43C20.87 10.62 21.24 10.34 21.15 9.99L20.47 7.3C20.45 7.23 20.45 7.15 20.48 7.07C20.5 7 20.54 6.93 20.6 6.88L22.72 5.12C23 4.89 22.86 4.43 22.5 4.4L19.73 4.22C19.66 4.22 19.59 4.19 19.53 4.15C19.47 4.1 19.42 4.04 19.39 3.97L18.36 1.37C18.33 1.3 18.28 1.23 18.22 1.19C18.15 1.14 18.07 1.12 18 1.12C17.92 1.12 17.84 1.14 17.77 1.19C17.71 1.23 17.66 1.3 17.63 1.37L16.6 3.97C16.57 4.04 16.52 4.1 16.46 4.15C16.4 4.19 16.33 4.22 16.26 4.22L13.49 4.4C13.13 4.43 12.99 4.89 13.27 5.12L15.39 6.88C15.45 6.93 15.49 7 15.51 7.07C15.54 7.15 15.54 7.23 15.52 7.3L14.89 9.79C14.78 10.22 15.23 10.56 15.59 10.33L17.79 8.94C17.85 8.9 17.92 8.88 18 8.88C18.07 8.88 18.14 8.9 18.2 8.94L18.2 8.94Z" fill="#FF8A00" fill-opacity="1.000000" fill-rule="nonzero"/>
	</g>
	<rect id="Star 3" width="12.000000" height="12.000000" transform="translate(24.000000 0.000000)" fill="#FFFFFF" fill-opacity="0"/>
	<g clip-path="url(#clip120_7170)">
		<path id="Vector" d="M30.33 8.62L32.76 10.06C33.07 10.25 33.45 9.97 33.36 9.63L32.66 7.05C32.64 6.98 32.64 6.91 32.67 6.84C32.69 6.76 32.73 6.7 32.8 6.65L34.97 4.96C35.26 4.74 35.11 4.29 34.74 4.27L31.9 4.1C31.83 4.09 31.75 4.07 31.69 4.03C31.63 3.98 31.58 3.92 31.55 3.86L30.49 1.36C30.46 1.29 30.41 1.23 30.35 1.19C30.28 1.14 30.2 1.12 30.12 1.12C30.04 1.12 29.96 1.14 29.89 1.19C29.83 1.23 29.77 1.29 29.75 1.36L28.69 3.86C28.66 3.92 28.61 3.98 28.55 4.03C28.49 4.07 28.41 4.09 28.34 4.1L25.5 4.27C25.13 4.29 24.98 4.74 25.27 4.96L27.44 6.65C27.51 6.7 27.55 6.76 27.57 6.84C27.6 6.91 27.6 6.98 27.58 7.05L26.93 9.45C26.82 9.85 27.28 10.18 27.65 9.96L29.91 8.62C29.97 8.59 30.05 8.57 30.12 8.57C30.2 8.57 30.27 8.59 30.33 8.62L30.33 8.62Z" fill="#FF8A00" fill-opacity="1.000000" fill-rule="nonzero"/>
	</g>
	<rect id="Star 4" width="12.000000" height="12.000000" transform="translate(36.000000 0.000000)" fill="#FFFFFF" fill-opacity="0"/>
	<g clip-path="url(#clip120_7173)">
		<path id="Vector" d="M42.2 8.94L44.57 10.43C44.87 10.62 45.24 10.34 45.15 9.99L44.47 7.3C44.45 7.23 44.45 7.15 44.48 7.07C44.5 7 44.54 6.93 44.6 6.88L46.72 5.12C47 4.89 46.86 4.43 46.5 4.4L43.73 4.22C43.66 4.22 43.59 4.19 43.53 4.15C43.47 4.1 43.42 4.04 43.39 3.97L42.36 1.37C42.33 1.3 42.28 1.23 42.22 1.19C42.15 1.14 42.07 1.12 42 1.12C41.92 1.12 41.84 1.14 41.77 1.19C41.71 1.23 41.66 1.3 41.63 1.37L40.6 3.97C40.57 4.04 40.52 4.1 40.46 4.15C40.4 4.19 40.33 4.22 40.26 4.22L37.49 4.4C37.13 4.43 36.99 4.89 37.27 5.12L39.39 6.88C39.45 6.93 39.49 7 39.51 7.07C39.54 7.15 39.54 7.23 39.52 7.3L38.89 9.79C38.78 10.22 39.23 10.56 39.59 10.33L41.79 8.94C41.85 8.9 41.92 8.88 42 8.88C42.07 8.88 42.14 8.9 42.2 8.94L42.2 8.94Z" fill="#FF8A00" fill-opacity="1.000000" fill-rule="nonzero"/>
	</g>
	<rect id="Star 5" width="12.000000" height="12.000000" transform="translate(48.000000 0.000000)" fill="#FFFFFF" fill-opacity="0"/>
	<g clip-path="url(#clip120_7176)">
		<path id="Vector" d="M54.2 8.94L56.57 10.43C56.87 10.62 57.24 10.34 57.15 9.99L56.47 7.3C56.45 7.23 56.45 7.15 56.48 7.07C56.5 7 56.54 6.93 56.6 6.88L58.72 5.12C59 4.89 58.86 4.43 58.5 4.4L55.73 4.22C55.66 4.22 55.59 4.19 55.53 4.15C55.47 4.1 55.42 4.04 55.39 3.97L54.36 1.37C54.33 1.3 54.28 1.23 54.22 1.19C54.15 1.14 54.07 1.12 54 1.12C53.92 1.12 53.84 1.14 53.77 1.19C53.71 1.23 53.66 1.3 53.63 1.37L52.6 3.97C52.57 4.04 52.52 4.1 52.46 4.15C52.4 4.19 52.33 4.22 52.26 4.22L49.49 4.4C49.13 4.43 48.99 4.89 49.27 5.12L51.39 6.88C51.45 6.93 51.49 7 51.51 7.07C51.54 7.15 51.54 7.23 51.52 7.3L50.89 9.79C50.78 10.22 51.23 10.56 51.59 10.33L53.79 8.94C53.85 8.9 53.92 8.88 54 8.88C54.07 8.88 54.14 8.9 54.2 8.94L54.2 8.94Z" fill="#CCCCCC" fill-opacity="1.000000" fill-rule="nonzero"/>
	</g>
</svg>
