<svg width="9.750122" height="9.374634" viewBox="0 0 9.75012 9.37463" fill="none" xmlns="http://www.w3.org/2000/svg" xmlns:xlink="http://www.w3.org/1999/xlink">
	<desc>
			Created with Pixso.
	</desc>
	<defs/>
	<path id="Vector" d="M5.08 7.81L7.44 9.31C7.74 9.5 8.12 9.21 8.03 8.86L7.35 6.18C7.33 6.1 7.33 6.02 7.35 5.95C7.38 5.87 7.42 5.81 7.48 5.76L9.6 3.99C9.88 3.76 9.73 3.3 9.38 3.28L6.61 3.1C6.53 3.09 6.46 3.07 6.4 3.02C6.34 2.98 6.29 2.92 6.27 2.85L5.23 0.25C5.21 0.17 5.16 0.11 5.09 0.06C5.03 0.02 4.95 0 4.87 0C4.79 0 4.71 0.02 4.65 0.06C4.58 0.11 4.53 0.17 4.51 0.25L3.47 2.85C3.45 2.92 3.4 2.98 3.34 3.02C3.28 3.07 3.21 3.09 3.13 3.1L0.36 3.28C0.01 3.3 -0.14 3.76 0.14 3.99L2.26 5.76C2.32 5.81 2.36 5.87 2.39 5.95C2.41 6.02 2.41 6.1 2.39 6.18L1.76 8.67C1.65 9.09 2.1 9.43 2.47 9.2L4.66 7.81C4.73 7.77 4.8 7.75 4.87 7.75C4.94 7.75 5.02 7.77 5.08 7.81L5.08 7.81Z" fill="#CCCCCC" fill-opacity="1.000000" fill-rule="nonzero"/>
</svg>
