<svg width="19.500000" height="19.500000" viewBox="0 0 19.5 19.5" fill="none" xmlns="http://www.w3.org/2000/svg" xmlns:xlink="http://www.w3.org/1999/xlink">
	<desc>
			Created with Pixso.
	</desc>
	<defs/>
	<path id="Vector" d="M7.75 18.75C7.21 18.75 6.71 18.53 6.33 18.16C5.96 17.78 5.75 17.28 5.75 16.75L5.75 12.75L7.75 12.75L7.75 16.75L16.75 16.75L16.75 2.75L7.75 2.75L7.75 6.75L5.75 6.75L5.75 2.75C5.75 2.21 5.96 1.71 6.33 1.33C6.71 0.96 7.21 0.75 7.75 0.75L16.75 0.75C17.28 0.75 17.78 0.96 18.16 1.33C18.53 1.71 18.75 2.21 18.75 2.75L18.75 16.75C18.75 17.28 18.53 17.78 18.16 18.16C17.78 18.53 17.28 18.75 16.75 18.75L7.75 18.75ZM9.75 10.75L0.75 10.75L0.75 8.75L9.75 8.75L9.75 5.75L14.75 9.75L9.75 13.75L9.75 10.75Z" stroke="#000000" stroke-opacity="1.000000" stroke-width="1.500000"/>
</svg>
