<svg width="18.000000" height="18.000000" viewBox="0 0 18 18" fill="none" xmlns="http://www.w3.org/2000/svg" xmlns:xlink="http://www.w3.org/1999/xlink">
	<desc>
			Created with Pixso.
	</desc>
	<defs/>
	<path id="Vector" d="M16 18L7 18C6.46 18 5.96 17.78 5.58 17.41C5.21 17.03 5 16.53 5 16L5 12L7 12L7 16L16 16L16 2L7 2L7 6L5 6L5 2C5 1.46 5.21 0.96 5.58 0.58C5.96 0.21 6.46 0 7 0L16 0C16.53 0 17.03 0.21 17.41 0.58C17.78 0.96 18 1.46 18 2L18 16C18 16.53 17.78 17.03 17.41 17.41C17.03 17.78 16.53 18 16 18ZM9 13L9 10L0 10L0 8L9 8L9 5L14 9L9 13Z" fill="#CCCCCC" fill-opacity="1.000000" fill-rule="nonzero"/>
</svg>
