<svg width="19.403809" height="20.000000" viewBox="0 0 19.4038 20" fill="none" xmlns="http://www.w3.org/2000/svg" xmlns:xlink="http://www.w3.org/1999/xlink">
	<desc>
			Created with Pixso.
	</desc>
	<defs/>
	<path id="Vector" d="M11.52 20L7.88 20C7.65 20 7.43 19.92 7.25 19.77C7.07 19.63 6.95 19.43 6.9 19.21L6.49 17.33C5.95 17.09 5.44 16.79 4.96 16.44L3.12 17.02C2.9 17.09 2.67 17.08 2.46 17C2.24 16.92 2.07 16.77 1.95 16.57L0.13 13.42C0.01 13.22 -0.03 12.99 0.01 12.77C0.04 12.54 0.15 12.33 0.32 12.18L1.75 10.88C1.68 10.29 1.68 9.7 1.75 9.11L0.32 7.81C0.15 7.66 0.04 7.45 0.01 7.22C-0.03 7 0.01 6.77 0.13 6.57L1.95 3.42C2.06 3.22 2.24 3.07 2.45 2.99C2.67 2.9 2.9 2.9 3.12 2.96L4.95 3.55C5.2 3.37 5.45 3.2 5.72 3.05C5.97 2.91 6.23 2.78 6.49 2.66L6.9 0.78C6.95 0.56 7.07 0.36 7.25 0.22C7.43 0.07 7.65 0 7.88 0L11.52 0C11.75 0 11.97 0.07 12.14 0.22C12.32 0.36 12.44 0.56 12.49 0.78L12.91 2.66C13.45 2.9 13.96 3.2 14.44 3.55L16.28 2.97C16.5 2.9 16.73 2.91 16.94 2.99C17.15 3.07 17.33 3.22 17.45 3.42L19.27 6.57C19.5 6.98 19.42 7.5 19.07 7.81L17.65 9.11C17.71 9.7 17.71 10.29 17.65 10.88L19.07 12.18C19.42 12.5 19.5 13.02 19.27 13.42L17.45 16.58C17.33 16.77 17.15 16.93 16.94 17.01C16.73 17.09 16.5 17.1 16.28 17.03L14.44 16.44C13.96 16.8 13.45 17.09 12.91 17.33L12.49 19.21C12.44 19.43 12.32 19.63 12.14 19.77C11.97 19.92 11.75 20 11.52 20ZM5.32 14.22L6.14 14.82C6.32 14.96 6.52 15.08 6.71 15.2C6.9 15.31 7.1 15.41 7.29 15.5L8.23 15.9L8.68 18L10.71 18L11.17 15.9L12.1 15.49C12.51 15.31 12.9 15.09 13.26 14.83L14.08 14.23L16.12 14.88L17.13 13.12L15.55 11.68L15.66 10.66C15.71 10.22 15.71 9.78 15.66 9.33L15.55 8.32L17.13 6.87L16.12 5.12L14.08 5.77L13.26 5.17C12.9 4.9 12.51 4.68 12.1 4.5L11.17 4.09L10.71 2L8.68 2L8.22 4.09L7.29 4.5C6.89 4.67 6.5 4.9 6.14 5.16L5.32 5.76L3.28 5.11L2.26 6.87L3.85 8.32L3.73 9.33C3.68 9.77 3.68 10.22 3.73 10.66L3.85 11.67L2.26 13.12L3.28 14.87L5.32 14.22ZM9.69 14C8.63 14 7.62 13.57 6.87 12.82C6.12 12.07 5.69 11.06 5.69 10C5.69 8.93 6.12 7.92 6.87 7.17C7.62 6.42 8.63 6 9.69 6C10.75 6 11.77 6.42 12.52 7.17C13.27 7.92 13.69 8.93 13.69 10C13.69 11.06 13.27 12.07 12.52 12.82C11.77 13.57 10.75 14 9.69 14ZM9.69 8C9.3 8 8.92 8.11 8.59 8.33C8.27 8.54 8.01 8.85 7.86 9.21C7.7 9.57 7.66 9.97 7.73 10.35C7.8 10.74 7.98 11.09 8.25 11.38C8.52 11.66 8.87 11.86 9.25 11.95C9.63 12.03 10.03 12 10.4 11.87C10.77 11.73 11.08 11.49 11.31 11.17C11.54 10.85 11.68 10.48 11.69 10.08L11.69 10.49L11.69 10C11.69 9.46 11.48 8.96 11.11 8.58C10.73 8.21 10.22 8 9.69 8Z" fill="#CCCCCC" fill-opacity="1.000000" fill-rule="nonzero"/>
</svg>
