<svg width="104.000000" height="20.000000" viewBox="0 0 104 20" fill="none" xmlns="http://www.w3.org/2000/svg" xmlns:xlink="http://www.w3.org/1999/xlink">
	<desc>
			Created with Pixso.
	</desc>
	<defs>
		<clipPath id="clip170_2541">
			<rect id="Star 6" width="20.000000" height="20.000000" fill="white" fill-opacity="0"/>
		</clipPath>
		<clipPath id="clip170_2544">
			<rect id="Star 7" width="20.000000" height="20.000000" transform="translate(21.000000 0.000000)" fill="white" fill-opacity="0"/>
		</clipPath>
		<clipPath id="clip170_2547">
			<rect id="Star 8" width="20.000000" height="20.000000" transform="translate(42.000000 0.000000)" fill="white" fill-opacity="0"/>
		</clipPath>
		<clipPath id="clip170_2550">
			<rect id="Star 9" width="20.000000" height="20.000000" transform="translate(63.000000 0.000000)" fill="white" fill-opacity="0"/>
		</clipPath>
		<clipPath id="clip170_2553">
			<rect id="Star 10" width="20.000000" height="20.000000" transform="translate(84.000000 0.000000)" fill="white" fill-opacity="0"/>
		</clipPath>
	</defs>
	<rect id="Star 6" width="20.000000" height="20.000000" fill="#FFFFFF" fill-opacity="0"/>
	<g clip-path="url(#clip170_2541)">
		<path id="Vector" d="M10.34 14.9L14.28 17.39C14.78 17.71 15.41 17.24 15.26 16.65L14.12 12.17C14.09 12.05 14.09 11.91 14.13 11.79C14.17 11.67 14.24 11.56 14.34 11.48L17.88 8.54C18.34 8.15 18.1 7.38 17.5 7.34L12.89 7.04C12.77 7.03 12.65 6.99 12.55 6.91C12.45 6.84 12.37 6.74 12.32 6.62L10.6 2.29C10.56 2.17 10.47 2.06 10.36 1.99C10.26 1.91 10.13 1.87 9.99 1.87C9.86 1.87 9.73 1.91 9.63 1.99C9.52 2.06 9.43 2.17 9.39 2.29L7.67 6.62C7.62 6.74 7.54 6.84 7.44 6.91C7.34 6.99 7.22 7.03 7.1 7.04L2.49 7.34C1.89 7.38 1.65 8.15 2.11 8.54L5.65 11.48C5.75 11.56 5.82 11.67 5.86 11.79C5.9 11.91 5.9 12.05 5.87 12.17L4.81 16.32C4.63 17.03 5.38 17.6 5.99 17.22L9.65 14.9C9.75 14.83 9.87 14.8 10 14.8C10.12 14.8 10.24 14.83 10.34 14.9L10.34 14.9Z" fill="#FF8A00" fill-opacity="1.000000" fill-rule="nonzero"/>
	</g>
	<rect id="Star 7" width="20.000000" height="20.000000" transform="translate(21.000000 0.000000)" fill="#FFFFFF" fill-opacity="0"/>
	<g clip-path="url(#clip170_2544)">
		<path id="Vector" d="M31.34 14.9L35.28 17.39C35.78 17.71 36.41 17.24 36.26 16.65L35.12 12.17C35.09 12.05 35.09 11.91 35.13 11.79C35.17 11.67 35.24 11.56 35.34 11.48L38.88 8.54C39.34 8.15 39.1 7.38 38.5 7.34L33.89 7.04C33.77 7.03 33.65 6.99 33.55 6.91C33.45 6.84 33.37 6.74 33.32 6.62L31.6 2.29C31.56 2.17 31.47 2.06 31.36 1.99C31.26 1.91 31.13 1.87 30.99 1.87C30.86 1.87 30.73 1.91 30.63 1.99C30.52 2.06 30.43 2.17 30.39 2.29L28.67 6.62C28.62 6.74 28.54 6.84 28.44 6.91C28.34 6.99 28.22 7.03 28.1 7.04L23.49 7.34C22.89 7.38 22.65 8.15 23.11 8.54L26.65 11.48C26.75 11.56 26.82 11.67 26.86 11.79C26.9 11.91 26.9 12.05 26.87 12.17L25.81 16.32C25.63 17.03 26.38 17.6 26.99 17.22L30.65 14.9C30.75 14.83 30.87 14.8 31 14.8C31.12 14.8 31.24 14.83 31.34 14.9L31.34 14.9Z" fill="#FF8A00" fill-opacity="1.000000" fill-rule="nonzero"/>
	</g>
	<rect id="Star 8" width="20.000000" height="20.000000" transform="translate(42.000000 0.000000)" fill="#FFFFFF" fill-opacity="0"/>
	<g clip-path="url(#clip170_2547)">
		<path id="Vector" d="M52.34 14.9L56.28 17.39C56.78 17.71 57.41 17.24 57.26 16.65L56.12 12.17C56.09 12.05 56.09 11.91 56.13 11.79C56.17 11.67 56.24 11.56 56.34 11.48L59.88 8.54C60.34 8.15 60.1 7.38 59.5 7.34L54.89 7.04C54.77 7.03 54.65 6.99 54.55 6.91C54.45 6.84 54.37 6.74 54.32 6.62L52.6 2.29C52.56 2.17 52.47 2.06 52.36 1.99C52.26 1.91 52.13 1.87 51.99 1.87C51.86 1.87 51.73 1.91 51.63 1.99C51.52 2.06 51.43 2.17 51.39 2.29L49.67 6.62C49.62 6.74 49.54 6.84 49.44 6.91C49.34 6.99 49.22 7.03 49.1 7.04L44.49 7.34C43.89 7.38 43.65 8.15 44.11 8.54L47.65 11.48C47.75 11.56 47.82 11.67 47.86 11.79C47.9 11.91 47.9 12.05 47.87 12.17L46.81 16.32C46.63 17.03 47.38 17.6 47.99 17.22L51.65 14.9C51.75 14.83 51.87 14.8 52 14.8C52.12 14.8 52.24 14.83 52.34 14.9L52.34 14.9Z" fill="#FF8A00" fill-opacity="1.000000" fill-rule="nonzero"/>
	</g>
	<rect id="Star 9" width="20.000000" height="20.000000" transform="translate(63.000000 0.000000)" fill="#FFFFFF" fill-opacity="0"/>
	<g clip-path="url(#clip170_2550)">
		<path id="Vector" d="M73.34 14.9L77.28 17.39C77.78 17.71 78.41 17.24 78.26 16.65L77.12 12.17C77.09 12.05 77.09 11.91 77.13 11.79C77.17 11.67 77.24 11.56 77.34 11.48L80.88 8.54C81.34 8.15 81.1 7.38 80.5 7.34L75.89 7.04C75.77 7.03 75.65 6.99 75.55 6.91C75.45 6.84 75.37 6.74 75.32 6.62L73.6 2.29C73.56 2.17 73.47 2.06 73.36 1.99C73.26 1.91 73.13 1.87 72.99 1.87C72.86 1.87 72.73 1.91 72.63 1.99C72.52 2.06 72.43 2.17 72.39 2.29L70.67 6.62C70.62 6.74 70.54 6.84 70.44 6.91C70.34 6.99 70.22 7.03 70.1 7.04L65.49 7.34C64.89 7.38 64.65 8.15 65.11 8.54L68.65 11.48C68.75 11.56 68.82 11.67 68.86 11.79C68.9 11.91 68.9 12.05 68.87 12.17L67.81 16.32C67.63 17.03 68.38 17.6 68.99 17.22L72.65 14.9C72.75 14.83 72.87 14.8 73 14.8C73.12 14.8 73.24 14.83 73.34 14.9L73.34 14.9Z" fill="#FF8A00" fill-opacity="1.000000" fill-rule="nonzero"/>
	</g>
	<rect id="Star 10" width="20.000000" height="20.000000" transform="translate(84.000000 0.000000)" fill="#FFFFFF" fill-opacity="0"/>
	<g clip-path="url(#clip170_2553)">
		<path id="Vector" d="M94.34 14.9L98.28 17.39C98.78 17.71 99.41 17.24 99.26 16.65L98.12 12.17C98.09 12.05 98.09 11.91 98.13 11.79C98.17 11.67 98.24 11.56 98.34 11.48L101.88 8.54C102.34 8.15 102.1 7.38 101.5 7.34L96.89 7.04C96.77 7.03 96.65 6.99 96.55 6.91C96.45 6.84 96.37 6.74 96.32 6.62L94.6 2.29C94.56 2.17 94.47 2.06 94.36 1.99C94.26 1.91 94.13 1.87 93.99 1.87C93.86 1.87 93.73 1.91 93.63 1.99C93.52 2.06 93.43 2.17 93.39 2.29L91.67 6.62C91.62 6.74 91.54 6.84 91.44 6.91C91.34 6.99 91.22 7.03 91.1 7.04L86.49 7.34C85.89 7.38 85.65 8.15 86.11 8.54L89.65 11.48C89.75 11.56 89.82 11.67 89.86 11.79C89.9 11.91 89.9 12.05 89.87 12.17L88.81 16.32C88.63 17.03 89.38 17.6 89.99 17.22L93.65 14.9C93.75 14.83 93.87 14.8 94 14.8C94.12 14.8 94.24 14.83 94.34 14.9L94.34 14.9Z" fill="#FF8A00" fill-opacity="1.000000" fill-rule="nonzero"/>
	</g>
</svg>
