<svg width="37.621887" height="40.000000" viewBox="0 0 37.6219 40" fill="none" xmlns="http://www.w3.org/2000/svg" xmlns:xlink="http://www.w3.org/1999/xlink">
	<desc>
			Created with Pixso.
	</desc>
	<defs/>
	<path id="Vector" d="M32.49 15.21L32.49 13.67C32.49 9.99 31.19 6.57 28.83 4.03C26.41 1.42 23.08 0 19.45 0L18.18 0C14.55 0 11.22 1.42 8.8 4.03C6.44 6.57 5.14 9.99 5.14 13.67L5.14 15.21C2.27 15.4 0 17.78 0 20.7L0 23.1C0 26.14 2.47 28.61 5.5 28.61L8.6 28.61C9.15 28.61 9.61 28.15 9.61 27.6L9.61 16.2C9.61 15.64 9.15 15.19 8.6 15.19L7.15 15.19L7.15 13.67C7.15 7.02 11.89 2.01 18.17 2.01L19.44 2.01C25.73 2.01 30.46 7.02 30.46 13.67L30.46 15.19L29.01 15.19C28.46 15.19 28 15.64 28 16.2L28 27.59C28 28.15 28.46 28.6 29.01 28.6L30.42 28.6C30.01 33.86 26.39 35.08 24.71 35.36C24.25 33.94 22.91 32.91 21.34 32.91L18.82 32.91C16.87 32.91 15.28 34.5 15.28 36.45C15.28 38.4 16.87 40 18.82 40L21.35 40C22.98 40 24.35 38.89 24.76 37.39C25.58 37.27 26.89 36.98 28.18 36.22C30 35.15 32.16 32.98 32.45 28.59C35.33 28.42 37.62 26.02 37.62 23.1L37.62 20.69C37.63 17.78 35.36 15.39 32.49 15.21ZM7.61 26.58L5.52 26.58C3.59 26.58 2.03 25.02 2.03 23.1L2.03 20.69C2.03 18.77 3.59 17.21 5.52 17.21L7.61 17.21L7.61 26.58ZM21.35 37.98L18.82 37.98C17.98 37.98 17.3 37.3 17.3 36.46C17.3 35.62 17.98 34.94 18.82 34.94L21.35 34.94C22.19 34.94 22.87 35.62 22.87 36.46C22.87 37.3 22.19 37.98 21.35 37.98ZM35.61 23.1C35.61 25.02 34.05 26.58 32.12 26.58L30.03 26.58L30.03 17.21L32.12 17.21C34.05 17.21 35.61 18.77 35.61 20.69L35.61 23.1Z" fill="#00B307" fill-opacity="1.000000" fill-rule="nonzero"/>
</svg>
