<svg width="31.960266" height="40.000000" viewBox="0 0 31.9603 40" fill="none" xmlns="http://www.w3.org/2000/svg" xmlns:xlink="http://www.w3.org/1999/xlink">
	<desc>
			Created with Pixso.
	</desc>
	<defs/>
	<path id="Vector" d="M31.96 34.66L29.65 8.72C29.61 8.21 29.18 7.82 28.66 7.82L23.81 7.82C23.8 3.51 20.29 0 15.98 0C11.66 0 8.15 3.51 8.14 7.82L3.29 7.82C2.78 7.82 2.35 8.21 2.3 8.72L0 34.66C0 34.7 0 34.72 0 34.75C0 37.64 2.65 40 5.92 40L26.04 40C29.3 40 31.96 37.64 31.96 34.75C31.96 34.72 31.96 34.7 31.96 34.66ZM15.98 1.98C19.2 1.98 21.81 4.6 21.82 7.82L10.13 7.82C10.14 4.6 12.75 1.98 15.98 1.98ZM26.04 38L5.92 38C3.76 38 2.01 36.57 1.98 34.79L4.2 9.81L8.14 9.81L8.14 13.29C8.14 13.84 8.59 14.29 9.14 14.29C9.68 14.29 10.13 13.84 10.13 13.29L10.13 9.81L21.82 9.81L21.82 13.29C21.82 13.84 22.27 14.29 22.81 14.29C23.36 14.29 23.81 13.84 23.81 13.29L23.81 9.81L27.75 9.81L29.97 34.8C29.94 36.57 28.19 38 26.04 38Z" fill="#00B307" fill-opacity="1.000000" fill-rule="nonzero"/>
	<path id="Vector" d="M20.11 20.68L14.24 26.54L11.85 24.15C11.46 23.76 10.83 23.76 10.44 24.15C10.06 24.54 10.06 25.17 10.44 25.55L13.54 28.65C13.73 28.84 13.99 28.94 14.24 28.94C14.5 28.94 14.75 28.84 14.95 28.65L21.51 22.09C21.9 21.7 21.9 21.07 21.51 20.68C21.13 20.3 20.5 20.3 20.11 20.68Z" fill="#00B307" fill-opacity="1.000000" fill-rule="nonzero"/>
</svg>
