<svg width="32.000000" height="32.000000" viewBox="0 0 32 32" fill="none" xmlns="http://www.w3.org/2000/svg" xmlns:xlink="http://www.w3.org/1999/xlink">
	<desc>
			Created with Pixso.
	</desc>
	<defs>
		<clipPath id="clip170_2173">
			<rect id="Icons" width="32.000000" height="32.000000" fill="white" fill-opacity="0"/>
		</clipPath>
	</defs>
	<g clip-path="url(#clip170_2173)">
		<path id="Vector" d="M16 28.05C12.72 28.05 12.33 28.03 11.05 27.98C10.05 27.94 9.07 27.74 8.14 27.38C7.34 27.07 6.62 26.6 6.02 25.99C5.41 25.39 4.94 24.66 4.63 23.87C4.28 22.94 4.09 21.95 4.07 20.95C4 19.68 4 19.26 4 16C4 12.71 4.02 12.33 4.07 11.06C4.09 10.06 4.28 9.08 4.63 8.14C4.94 7.35 5.41 6.62 6.02 6.02C6.62 5.41 7.34 4.94 8.14 4.63C9.07 4.28 10.06 4.09 11.05 4.07C12.33 4 12.75 4 16 4C19.3 4 19.68 4.02 20.94 4.07C21.94 4.09 22.93 4.28 23.86 4.63C24.66 4.94 25.38 5.41 25.99 6.02C26.59 6.62 27.07 7.35 27.38 8.14C27.73 9.09 27.92 10.09 27.94 11.1C28.01 12.38 28.01 12.79 28.01 16.05C28.01 19.3 27.99 19.73 27.94 20.99C27.92 21.99 27.73 22.97 27.38 23.91C27.07 24.71 26.59 25.43 25.99 26.03C25.38 26.64 24.66 27.11 23.86 27.42C22.93 27.77 21.95 27.96 20.95 27.98C19.68 28.05 19.26 28.05 16 28.05ZM15.95 6.11C12.69 6.11 12.35 6.13 11.08 6.19C10.32 6.2 9.57 6.34 8.85 6.6C8.33 6.8 7.86 7.11 7.47 7.5C7.07 7.89 6.76 8.36 6.56 8.88C6.3 9.6 6.16 10.36 6.15 11.13C6.08 12.42 6.08 12.76 6.08 16C6.08 19.2 6.09 19.59 6.15 20.87C6.16 21.63 6.3 22.39 6.56 23.1C6.97 24.15 7.8 24.98 8.85 25.38C9.57 25.65 10.32 25.79 11.08 25.8C12.37 25.87 12.71 25.87 15.95 25.87C19.22 25.87 19.56 25.86 20.82 25.8C21.58 25.79 22.34 25.65 23.05 25.38C23.57 25.18 24.04 24.87 24.43 24.48C24.82 24.09 25.13 23.62 25.33 23.1C25.6 22.38 25.74 21.62 25.75 20.85L25.76 20.85C25.82 19.58 25.82 19.24 25.82 15.98C25.82 12.72 25.8 12.38 25.75 11.11C25.73 10.35 25.59 9.6 25.33 8.88C25.13 8.37 24.82 7.89 24.43 7.5C24.04 7.11 23.57 6.8 23.05 6.6C22.34 6.33 21.58 6.2 20.82 6.19C19.54 6.11 19.2 6.11 15.95 6.11ZM16 22.16C14.78 22.16 13.59 21.8 12.57 21.12C11.56 20.45 10.77 19.48 10.3 18.36C9.83 17.23 9.71 15.99 9.95 14.8C10.18 13.6 10.77 12.5 11.63 11.64C12.49 10.78 13.59 10.19 14.79 9.95C15.98 9.71 17.22 9.83 18.35 10.3C19.48 10.77 20.44 11.56 21.12 12.57C21.8 13.58 22.16 14.78 22.16 16C22.16 17.63 21.51 19.19 20.35 20.35C19.2 21.51 17.63 22.16 16 22.16ZM16 11.99C15.21 11.99 14.43 12.23 13.78 12.67C13.12 13.11 12.6 13.73 12.3 14.46C12 15.19 11.92 16 12.07 16.77C12.23 17.55 12.61 18.26 13.17 18.82C13.73 19.38 14.44 19.76 15.22 19.92C15.99 20.07 16.8 19.99 17.53 19.69C18.26 19.39 18.88 18.87 19.32 18.21C19.76 17.56 20 16.78 20 15.99C20 14.93 19.57 13.92 18.82 13.17C18.07 12.42 17.06 12 16 11.99ZM22.4 11.04C22.21 11.04 22.02 11 21.85 10.93C21.67 10.86 21.52 10.75 21.38 10.62C21.11 10.35 20.96 9.98 20.97 9.6C20.97 9.22 21.12 8.85 21.39 8.58C21.66 8.32 22.03 8.17 22.41 8.17C22.79 8.17 23.15 8.32 23.42 8.59C23.69 8.86 23.84 9.23 23.84 9.61C23.84 9.99 23.69 10.36 23.42 10.62C23.15 10.89 22.78 11.04 22.4 11.04Z" fill="#FFFFFF" fill-opacity="1.000000" fill-rule="nonzero"/>
	</g>
</svg>
