<svg width="33.875000" height="43.437500" viewBox="0 0 33.875 43.4375" fill="none" xmlns="http://www.w3.org/2000/svg" xmlns:xlink="http://www.w3.org/1999/xlink">
	<desc>
			Created with Pixso.
	</desc>
	<defs/>
	<path id="Vector" d="M2.59 42.43L31.28 42.43" stroke="#2C742F" stroke-opacity="1.000000" stroke-width="2.000000" stroke-linejoin="round" stroke-linecap="round"/>
	<path id="Vector" d="M21.44 21.44C22.64 20.25 23.31 18.62 23.31 16.93C23.31 15.24 22.64 13.62 21.44 12.42C20.25 11.23 18.62 10.56 16.93 10.56C15.24 10.56 13.62 11.23 12.42 12.42C11.23 13.62 10.56 15.24 10.56 16.93C10.56 18.62 11.23 20.25 12.42 21.44C13.62 22.64 15.24 23.31 16.93 23.31C18.62 23.31 20.25 22.64 21.44 21.44Z" stroke="#2C742F" stroke-opacity="1.000000" stroke-width="2.000000" stroke-linejoin="round"/>
	<path id="Vector" d="M16.93 42.43C16.93 42.43 1 31.28 1 16.93C1 12.71 2.67 8.65 5.66 5.66C8.65 2.67 12.71 1 16.93 1C21.16 1 25.21 2.67 28.2 5.66C31.19 8.65 32.87 12.71 32.87 16.93C32.87 31.28 16.93 42.43 16.93 42.43Z" stroke="#2C742F" stroke-opacity="1.000000" stroke-width="2.000000" stroke-linejoin="round"/>
</svg>
