<svg width="51.000000" height="39.099609" viewBox="0 0 51 39.0996" fill="none" xmlns="http://www.w3.org/2000/svg" xmlns:xlink="http://www.w3.org/1999/xlink">
	<desc>
			Created with Pixso.
	</desc>
	<defs/>
	<path id="Vector" d="M48.45 0L2.54 0C1.14 0 0 1.14 0 2.54L0 36.54C0 37.95 1.14 39.09 2.54 39.09L48.45 39.09C49.85 39.09 51 37.95 51 36.54L51 2.54C51 1.14 49.85 0 48.45 0ZM49.29 36.54C49.29 37.01 48.91 37.4 48.45 37.4L2.54 37.4C2.08 37.4 1.7 37.01 1.7 36.54L1.7 2.54C1.7 2.08 2.08 1.7 2.54 1.7L48.45 1.7C48.91 1.7 49.29 2.08 49.29 2.54L49.29 36.54Z" fill="#2C742F" fill-opacity="1.000000" fill-rule="nonzero"/>
	<path id="Vector" d="M46.82 3.4C46.59 3.38 46.37 3.45 46.2 3.59L26.59 20.07C25.96 20.6 25.03 20.6 24.4 20.07L4.79 3.59C4.56 3.4 4.24 3.34 3.95 3.45C3.67 3.55 3.46 3.8 3.41 4.1C3.35 4.4 3.47 4.7 3.7 4.9L23.31 21.37C24.57 22.43 26.42 22.43 27.68 21.37L47.29 4.9C47.46 4.75 47.57 4.54 47.59 4.32C47.61 4.09 47.54 3.87 47.4 3.7C47.25 3.53 47.04 3.42 46.82 3.4Z" fill="#2C742F" fill-opacity="1.000000" fill-rule="nonzero"/>
	<path id="Vector" d="M16.34 21.25C16.04 21.18 15.73 21.29 15.52 21.51L3.62 34.26C3.41 34.49 3.33 34.81 3.42 35.1C3.5 35.4 3.75 35.62 4.05 35.69C4.35 35.75 4.66 35.65 4.87 35.42L16.77 22.67C16.98 22.45 17.06 22.13 16.97 21.84C16.89 21.54 16.64 21.32 16.34 21.25Z" fill="#2C742F" fill-opacity="1.000000" fill-rule="nonzero"/>
	<path id="Vector" d="M35.47 21.51C35.26 21.29 34.95 21.18 34.65 21.25C34.35 21.32 34.1 21.54 34.02 21.84C33.93 22.13 34.01 22.45 34.22 22.67L46.12 35.42C46.45 35.75 46.97 35.77 47.31 35.45C47.65 35.14 47.67 34.61 47.37 34.26L35.47 21.51Z" fill="#2C742F" fill-opacity="1.000000" fill-rule="nonzero"/>
</svg>
