<svg width="41.846680" height="41.844727" viewBox="0 0 41.8467 41.8447" fill="none" xmlns="http://www.w3.org/2000/svg" xmlns:xlink="http://www.w3.org/1999/xlink">
	<desc>
			Created with Pixso.
	</desc>
	<defs/>
	<path id="Vector" d="M26.9 2.66C29.84 3.45 32.52 5 34.68 7.16C36.83 9.31 38.38 11.99 39.17 14.93" stroke="#2C742F" stroke-opacity="1.000000" stroke-width="2.000000" stroke-linejoin="round" stroke-linecap="round"/>
	<path id="Vector" d="M25.1 9.37C26.87 9.84 28.48 10.77 29.77 12.07C31.06 13.36 31.99 14.97 32.47 16.73" stroke="#2C742F" stroke-opacity="1.000000" stroke-width="2.000000" stroke-linejoin="round" stroke-linecap="round"/>
	<path id="Vector" d="M20.85 29.49C21.12 29.62 21.42 29.68 21.72 29.65C22.01 29.63 22.3 29.53 22.55 29.36L27.98 25.74C28.22 25.58 28.5 25.49 28.78 25.46C29.07 25.43 29.36 25.48 29.63 25.59L39.79 29.95C40.13 30.09 40.42 30.35 40.61 30.67C40.8 31 40.87 31.37 40.83 31.75C40.51 34.26 39.28 36.57 37.38 38.24C35.48 39.92 33.03 40.84 30.5 40.84C22.67 40.84 15.17 37.73 9.64 32.2C4.1 26.67 1 19.16 1 11.34C1 8.8 1.92 6.36 3.59 4.46C5.27 2.56 7.58 1.33 10.09 1.01C10.46 0.96 10.84 1.04 11.16 1.23C11.49 1.42 11.74 1.7 11.89 2.05L16.25 12.22C16.36 12.48 16.41 12.77 16.38 13.05C16.35 13.34 16.26 13.61 16.1 13.85L12.49 19.37C12.33 19.61 12.23 19.9 12.21 20.2C12.19 20.49 12.25 20.79 12.38 21.06C14.18 24.74 17.16 27.71 20.85 29.49Z" stroke="#2C742F" stroke-opacity="1.000000" stroke-width="2.000000" stroke-linejoin="round"/>
</svg>
