<svg width="57.941406" height="56.000000" viewBox="0 0 57.9414 56" fill="none" xmlns="http://www.w3.org/2000/svg" xmlns:xlink="http://www.w3.org/1999/xlink">
	<desc>
			Created with Pixso.
	</desc>
	<defs/>
	<path id="Vector" d="M17.13 21C29.26 8.4 43.26 21 43.26 21C43.26 21 29.26 33.59 17.13 21Z" fill="#36C63F" fill-opacity="1.000000" fill-rule="nonzero"/>
	<path id="Vector" d="M34.89 26.19C39.95 24.6 43.44 21.49 43.59 21.36L44 21L43.59 20.63C43.44 20.5 39.95 17.39 34.89 15.8C31.9 14.86 28.99 14.66 26.23 15.2C22.85 15.86 19.72 17.64 16.92 20.5L12 20.5L12 21.49L16.92 21.49C19.72 24.35 22.85 26.13 26.23 26.8C28.99 27.33 31.9 27.13 34.89 26.19ZM26.41 25.82C23.51 25.25 20.8 23.8 18.33 21.49L25.32 21.49L27.98 24.14L28.67 23.44L26.72 21.49L32.52 21.49L32.52 20.5L29.05 20.5L31.01 18.55L30.31 17.85L27.65 20.5L22.99 20.5L24.48 19.01L23.78 18.31L21.59 20.5L18.33 20.5C20.8 18.19 23.51 16.74 26.41 16.17C28.99 15.66 31.73 15.85 34.56 16.73C38.42 17.94 41.4 20.13 42.48 21C41.4 21.86 38.42 24.05 34.56 25.26C31.73 26.14 28.99 26.33 26.41 25.82Z" fill="#009F06" fill-opacity="1.000000" fill-rule="nonzero"/>
	<g opacity="0.300000">
		<path id="Vector" d="M34.39 20.5L34.39 21.49L33.46 21.49L33.46 20.5L34.39 20.5Z" fill="#FFFFFF" fill-opacity="1.000000" fill-rule="evenodd"/>
	</g>
	<g opacity="0.200000">
		<path id="Vector" d="M36.26 20.5L36.26 21.49L35.32 21.49L35.32 20.5L36.26 20.5Z" fill="#1A1A1A" fill-opacity="1.000000" fill-rule="evenodd"/>
	</g>
	<path id="farmary" d="M11.18 32.9L12.59 32.9L12.59 34.38L11.18 34.38L11.18 40L9.22 40L9.22 34.38L8.22 34.38L8.22 32.9L9.22 32.9L9.22 32.39C9.22 30.85 10.21 30.1 11.55 30.1C12.15 30.1 12.69 30.22 12.93 30.29L12.59 31.77C12.43 31.72 12.19 31.67 11.96 31.67C11.38 31.67 11.18 31.95 11.18 32.43L11.18 32.9ZM23.05 40L21.08 40L21.08 32.9L22.98 32.9L22.98 34.14L23.06 34.14C23.32 33.26 23.97 32.8 24.76 32.8C24.96 32.8 25.21 32.83 25.38 32.87L25.38 34.62C25.2 34.56 24.82 34.51 24.55 34.51C23.68 34.51 23.05 35.11 23.05 35.98L23.05 40ZM47.76 40L45.79 40L45.79 32.9L47.7 32.9L47.7 34.14L47.77 34.14C48.03 33.26 48.68 32.8 49.47 32.8C49.67 32.8 49.92 32.83 50.09 32.87L50.09 34.62C49.91 34.56 49.53 34.51 49.26 34.51C48.39 34.51 47.76 35.11 47.76 35.98L47.76 40ZM17.63 39.01C17.28 39.67 16.61 40.13 15.56 40.13C14.2 40.13 13.2 39.42 13.2 38.01C13.2 36.43 14.46 35.96 15.87 35.83C17.1 35.71 17.58 35.65 17.58 35.19L17.58 35.17C17.58 34.58 17.2 34.25 16.53 34.25C15.83 34.25 15.4 34.59 15.27 35.07L13.45 34.92C13.72 33.63 14.84 32.81 16.54 32.81C18.12 32.81 19.55 33.52 19.55 35.21L19.55 40L17.69 40L17.69 39.01L17.63 39.01ZM28.36 40L26.39 40L26.39 32.9L28.27 32.9L28.27 34.16L28.35 34.16C28.64 33.32 29.37 32.81 30.33 32.81C31.3 32.81 32.02 33.33 32.25 34.16L32.32 34.16C32.61 33.34 33.42 32.81 34.46 32.81C35.78 32.81 36.7 33.69 36.7 35.22L36.7 40L34.73 40L34.73 35.62C34.73 34.82 34.26 34.43 33.63 34.43C32.92 34.43 32.5 34.93 32.5 35.67L32.5 40L30.59 40L30.59 35.57C30.59 34.88 30.16 34.43 29.51 34.43C28.86 34.43 28.36 34.96 28.36 35.74L28.36 40ZM42.34 39.01C41.99 39.67 41.32 40.13 40.27 40.13C38.92 40.13 37.92 39.42 37.92 38.01C37.92 36.43 39.18 35.96 40.58 35.83C41.81 35.71 42.3 35.65 42.3 35.19L42.3 35.17C42.3 34.58 41.91 34.25 41.24 34.25C40.54 34.25 40.12 34.59 39.98 35.07L38.16 34.92C38.44 33.63 39.55 32.81 41.25 32.81C42.83 32.81 44.26 33.52 44.26 35.21L44.26 40L42.4 40L42.4 39.01L42.34 39.01ZM55.18 40.76C54.78 41.91 54 42.65 52.54 42.65C52.04 42.65 51.58 42.57 51.3 42.45L51.75 40.98C52.44 41.19 52.93 41.16 53.19 40.5L53.3 40.2L50.76 32.9L52.83 32.9L54.3 38.11L54.37 38.11L55.85 32.9L57.94 32.9L55.18 40.76ZM15.08 37.95C15.08 38.49 15.51 38.77 16.12 38.77C16.98 38.77 17.6 38.21 17.6 37.46L17.6 36.71C17.36 36.87 16.66 36.97 16.23 37.03C15.54 37.12 15.08 37.4 15.08 37.95ZM39.79 37.95C39.79 38.49 40.23 38.77 40.83 38.77C41.7 38.77 42.31 38.21 42.31 37.46L42.31 36.71C42.07 36.87 41.37 36.97 40.94 37.03C40.25 37.12 39.79 37.4 39.79 37.95Z" fill="#555555" fill-opacity="1.000000" fill-rule="evenodd"/>
</svg>
