<svg width="72.000000" height="72.000000" viewBox="0 0 72 72" fill="none" xmlns="http://www.w3.org/2000/svg" xmlns:xlink="http://www.w3.org/1999/xlink">
	<desc>
			Created with Pixso.
	</desc>
	<defs>
		<clipPath id="clip604_20425">
			<rect id="package" width="36.000000" height="36.000000" transform="translate(18.000000 18.000000)" fill="white" fill-opacity="0"/>
		</clipPath>
	</defs>
	<rect id="Icon" rx="36.000000" width="72.000000" height="72.000000" fill="#00B307" fill-opacity="0.100000"/>
	<rect id="package" width="36.000000" height="36.000000" transform="translate(18.000000 18.000000)" fill="#FFFFFF" fill-opacity="0"/>
	<g clip-path="url(#clip604_20425)">
		<path id="Vector" d="M52.55 26.48C52.55 26.35 52.52 26.21 52.46 26.08C52.34 25.82 52.1 25.65 51.84 25.59L36.37 18.09C36.12 17.96 35.82 17.96 35.57 18.09L19.94 25.66C19.64 25.81 19.44 26.11 19.42 26.45L19.42 26.46C19.42 26.47 19.42 26.47 19.42 26.49L19.42 45.5C19.42 45.85 19.62 46.17 19.94 46.32L35.57 53.9C35.58 53.9 35.58 53.9 35.58 53.9C35.61 53.91 35.63 53.92 35.65 53.93C35.66 53.93 35.67 53.94 35.68 53.94C35.71 53.95 35.73 53.96 35.75 53.96C35.76 53.96 35.77 53.97 35.77 53.97C35.8 53.98 35.83 53.98 35.85 53.99C35.86 53.99 35.87 53.99 35.87 53.99C35.9 53.99 35.94 54 35.97 54C36 54 36.04 54 36.07 53.99C36.08 53.99 36.09 53.99 36.09 53.99C36.12 53.99 36.15 53.98 36.17 53.97C36.18 53.97 36.18 53.96 36.19 53.96C36.22 53.96 36.24 53.95 36.26 53.94C36.27 53.94 36.28 53.93 36.29 53.93C36.31 53.93 36.34 53.92 36.36 53.9C36.37 53.9 36.37 53.9 36.37 53.9L52.05 46.3C52.36 46.15 52.57 45.83 52.57 45.48L52.57 26.5C52.55 26.5 52.55 26.49 52.55 26.48ZM35.96 19.92L49.52 26.49L44.53 28.91L30.97 22.34L35.96 19.92ZM35.96 33.06L22.41 26.49L28.88 23.35L42.44 29.92L35.96 33.06ZM21.25 27.96L35.05 34.65L35.05 51.62L21.25 44.92L21.25 27.96ZM36.88 51.62L36.88 34.65L43.36 31.5L43.36 35.94C43.36 36.44 43.77 36.85 44.27 36.85C44.77 36.85 45.18 36.44 45.18 35.94L45.18 30.62L50.73 27.93L50.73 44.89L36.88 51.62Z" fill="#00B307" fill-opacity="1.000000" fill-rule="nonzero"/>
	</g>
</svg>
