<svg width="72.000000" height="72.000000" viewBox="0 0 72 72" fill="none" xmlns="http://www.w3.org/2000/svg" xmlns:xlink="http://www.w3.org/1999/xlink">
	<desc>
			Created with Pixso.
	</desc>
	<defs>
		<clipPath id="clip604_20434">
			<rect id="delivery-truck 1" width="40.000000" height="40.000000" transform="translate(16.000000 16.000000)" fill="white" fill-opacity="0"/>
		</clipPath>
	</defs>
	<rect id="Icon" rx="36.000000" width="72.000000" height="72.000000" fill="#00B307" fill-opacity="0.100000"/>
	<rect id="delivery-truck 1" width="40.000000" height="40.000000" transform="translate(16.000000 16.000000)" fill="#FFFFFF" fill-opacity="0"/>
	<g clip-path="url(#clip604_20434)">
		<path id="Vector" d="M48.7 42.3C47.72 42.3 46.79 42.68 46.09 43.37C45.39 44.08 45 44.99 45 45.96C45 46.94 45.38 47.85 46.09 48.55C46.8 49.25 47.72 49.63 48.7 49.63C50.7 49.63 52.33 47.98 52.33 45.96C52.33 43.94 50.7 42.3 48.7 42.3ZM48.7 48C47.57 48 46.63 47.07 46.63 45.96C46.63 44.86 47.57 43.93 48.7 43.93C49.8 43.93 50.7 44.84 50.7 45.96C50.7 47.09 49.8 48 48.7 48ZM49.64 30.09C49.5 29.95 49.3 29.88 49.1 29.88L44.92 29.88C44.47 29.88 44.1 30.25 44.1 30.69L44.1 37.37C44.1 37.82 44.47 38.19 44.92 38.19L51.55 38.19C52 38.19 52.36 37.82 52.36 37.37L52.36 32.9C52.36 32.67 52.26 32.45 52.09 32.3L49.64 30.09ZM50.73 36.56L45.73 36.56L45.73 31.5L48.78 31.5L50.73 33.26L50.73 36.56ZM28.81 42.3C27.83 42.3 26.9 42.68 26.2 43.37C25.5 44.08 25.11 44.99 25.11 45.96C25.11 46.94 25.49 47.85 26.2 48.55C26.91 49.25 27.83 49.63 28.81 49.63C30.81 49.63 32.44 47.98 32.44 45.96C32.44 43.94 30.81 42.3 28.81 42.3ZM28.81 48C27.68 48 26.74 47.07 26.74 45.96C26.74 44.86 27.68 43.93 28.81 43.93C29.91 43.93 30.81 44.84 30.81 45.96C30.81 47.09 29.91 48 28.81 48ZM23.37 43.3L21.74 43.3L21.74 41.13C21.74 40.69 21.37 40.32 20.92 40.32C20.48 40.32 20.11 40.69 20.11 41.13L20.11 44.12C20.11 44.56 20.48 44.93 20.92 44.93L23.37 44.93C23.82 44.93 24.19 44.56 24.19 44.12C24.19 43.67 23.82 43.3 23.37 43.3ZM27.5 38.86C27.5 38.41 27.14 38.05 26.69 38.05L16.81 38.05C16.36 38.05 16 38.41 16 38.86C16 39.31 16.36 39.68 16.81 39.68L26.69 39.68C27.14 39.68 27.5 39.32 27.5 38.86ZM18.46 35.92L28.34 35.98C28.79 35.98 29.16 35.62 29.17 35.17C29.17 34.72 28.81 34.35 28.36 34.35L18.48 34.29C18.47 34.29 18.47 34.29 18.47 34.29C18.02 34.29 17.66 34.65 17.66 35.1C17.65 35.56 18.02 35.92 18.46 35.92ZM20.12 32.22L30 32.22C30.45 32.22 30.82 31.86 30.82 31.41C30.82 30.96 30.45 30.59 30 30.59L20.12 30.59C19.68 30.59 19.31 30.96 19.31 31.41C19.31 31.86 19.68 32.22 20.12 32.22ZM55.69 31.12L49.86 26.29C49.72 26.17 49.54 26.11 49.34 26.11L42.48 26.11L42.48 23.17C42.48 22.73 42.12 22.36 41.67 22.36L20.92 22.36C20.48 22.36 20.11 22.73 20.11 23.17L20.11 29.14C20.11 29.58 20.48 29.95 20.92 29.95C21.37 29.95 21.74 29.58 21.74 29.14L21.74 23.99L40.86 23.99L40.86 43.3L34.18 43.3C33.73 43.3 33.37 43.67 33.37 44.12C33.37 44.56 33.73 44.93 34.18 44.93L44.13 44.93C44.58 44.93 44.94 44.56 44.94 44.12C44.94 43.67 44.58 43.3 44.13 43.3L42.49 43.3L42.49 27.74L49.06 27.74L54.37 32.13L54.31 43.29L53.46 43.29C53.01 43.29 52.65 43.65 52.65 44.1C52.65 44.55 53.01 44.91 53.46 44.91L55.12 44.91C55.56 44.91 55.93 44.56 55.93 44.11L56 31.76C55.99 31.52 55.88 31.28 55.69 31.12Z" fill="#00B307" fill-opacity="1.000000" fill-rule="nonzero"/>
	</g>
</svg>
