<svg width="72.000000" height="72.000000" viewBox="0 0 72 72" fill="none" xmlns="http://www.w3.org/2000/svg" xmlns:xlink="http://www.w3.org/1999/xlink">
	<desc>
			Created with Pixso.
	</desc>
	<defs>
		<clipPath id="clip604_20407">
			<rect id="headphones 1" width="36.000000" height="36.000000" transform="translate(18.000000 18.000000)" fill="white" fill-opacity="0"/>
		</clipPath>
	</defs>
	<rect id="Icon" rx="36.000000" width="72.000000" height="72.000000" fill="#00B307" fill-opacity="0.100000"/>
	<rect id="headphones 1" width="36.000000" height="36.000000" transform="translate(18.000000 18.000000)" fill="#FFFFFF" fill-opacity="0"/>
	<g clip-path="url(#clip604_20407)">
		<path id="Vector" d="M48.31 31.68L48.31 30.3C48.31 26.99 47.14 23.91 45.01 21.62C42.84 19.28 39.84 18 36.57 18L35.43 18C32.16 18 29.17 19.28 26.99 21.62C24.87 23.91 23.69 26.99 23.69 30.3L23.69 31.68C21.12 31.86 19.07 34.01 19.07 36.63L19.07 38.79C19.07 41.52 21.29 43.75 24.02 43.75L26.81 43.75C27.31 43.75 27.72 43.34 27.72 42.84L27.72 32.58C27.72 32.08 27.31 31.67 26.81 31.67L25.51 31.67L25.51 30.3C25.51 24.32 29.77 19.81 35.42 19.81L36.57 19.81C42.22 19.81 46.48 24.32 46.48 30.3L46.48 31.67L45.18 31.67C44.68 31.67 44.27 32.08 44.27 32.58L44.27 42.83C44.27 43.33 44.68 43.74 45.18 43.74L46.45 43.74C46.08 48.47 42.82 49.57 41.31 49.82C40.89 48.54 39.69 47.62 38.28 47.62L36.01 47.62C34.25 47.62 32.82 49.05 32.82 50.8C32.82 52.56 34.25 54 36.01 54L38.28 54C39.75 54 40.98 53 41.35 51.65C42.09 51.54 43.27 51.28 44.43 50.6C46.07 49.64 48.02 47.68 48.27 43.73C50.87 43.57 52.93 41.42 52.93 38.79L52.93 36.62C52.93 34.01 50.89 31.85 48.31 31.68ZM25.92 41.92L24.03 41.92C22.3 41.92 20.9 40.52 20.9 38.79L20.9 36.62C20.9 34.89 22.3 33.48 24.03 33.48L25.92 33.48L25.92 41.92ZM38.28 52.18L36.01 52.18C35.25 52.18 34.64 51.57 34.64 50.81C34.64 50.05 35.25 49.44 36.01 49.44L38.28 49.44C39.04 49.44 39.65 50.05 39.65 50.81C39.65 51.57 39.04 52.18 38.28 52.18ZM51.12 38.79C51.12 40.52 49.71 41.92 47.98 41.92L46.1 41.92L46.1 33.48L47.98 33.48C49.71 33.48 51.12 34.89 51.12 36.62L51.12 38.79Z" fill="#00B307" fill-opacity="1.000000" fill-rule="nonzero"/>
	</g>
</svg>
