<svg width="72.000000" height="72.000000" viewBox="0 0 72 72" fill="none" xmlns="http://www.w3.org/2000/svg" xmlns:xlink="http://www.w3.org/1999/xlink">
	<desc>
			Created with Pixso.
	</desc>
	<defs>
		<clipPath id="clip604_20508">
			<rect id="leaf 2" width="40.000000" height="40.000000" transform="translate(16.000000 16.000000)" fill="white" fill-opacity="0"/>
		</clipPath>
	</defs>
	<rect id="Icon" rx="36.000000" width="72.000000" height="72.000000" fill="#00B307" fill-opacity="0.100000"/>
	<rect id="leaf 2" width="40.000000" height="40.000000" transform="translate(16.000000 16.000000)" fill="#FFFFFF" fill-opacity="0"/>
	<g clip-path="url(#clip604_20508)">
		<path id="Vector" d="M52.49 16.53C52.43 16.34 52.3 16.17 52.12 16.08C51.76 15.89 51.32 16.03 51.14 16.38C51.14 16.38 51.14 16.38 51.13 16.39C51.13 16.41 47.45 23.56 36.13 24.8C34.65 24.96 33.21 25.35 31.85 25.95C29.42 27 27.41 28.84 26.15 31.17C24.97 33.36 24.48 35.86 24.74 38.33C24.94 40.13 25.54 41.87 26.51 43.4C24.5 44.85 18.12 49.84 17.54 55.19C17.5 55.59 17.79 55.95 18.19 55.99C18.59 56.03 18.95 55.74 18.99 55.34C19.52 50.56 25.5 45.93 27.37 44.58C29.6 47.33 32.96 48.89 36.56 49.14C38.98 49.3 41.4 48.88 43.64 47.93C46.06 46.92 48.2 45.33 49.88 43.3C54.19 38.07 56.24 29.29 52.49 16.53ZM27.78 42.68C27.51 42.25 27.26 41.79 27.05 41.32C26.61 40.32 26.33 39.26 26.21 38.17C25.96 36 26.38 33.79 27.41 31.86C28.53 29.81 30.3 28.19 32.44 27.26C33.66 26.73 34.96 26.39 36.29 26.26C43.76 25.45 48.16 22.13 50.42 19.71C49.09 24.1 46.8 28.13 43.71 31.52L43.27 27.07C43.24 26.67 42.9 26.36 42.5 26.38C42.1 26.4 41.79 26.75 41.81 27.15C41.81 27.17 41.82 27.19 41.82 27.21L42.39 32.93C39 36.36 34.31 39.81 27.78 42.68ZM48.75 42.37L48.75 42.37C47.23 44.22 45.28 45.68 43.07 46.61C41.04 47.46 38.84 47.83 36.64 47.68C33.58 47.53 30.71 46.16 28.66 43.88C31.06 42.82 33.38 41.58 35.6 40.19L41.99 41.4C42.39 41.46 42.76 41.19 42.82 40.79C42.88 40.41 42.63 40.04 42.25 39.97L37.34 39.04C39.61 37.48 41.72 35.71 43.64 33.74C43.68 33.71 43.71 33.68 43.74 33.64C48.81 28.36 50.97 23.13 51.87 19.91C54.35 30.51 52.45 37.89 48.75 42.37Z" fill="#00B307" fill-opacity="1.000000" fill-rule="nonzero"/>
	</g>
</svg>
