<svg width="72.000000" height="72.000000" viewBox="0 0 72 72" fill="none" xmlns="http://www.w3.org/2000/svg" xmlns:xlink="http://www.w3.org/1999/xlink">
	<desc>
			Created with Pixso.
	</desc>
	<defs>
		<clipPath id="clip604_20469">
			<rect id="stars 1" width="40.000000" height="40.000000" transform="translate(16.000000 16.000000)" fill="white" fill-opacity="0"/>
		</clipPath>
	</defs>
	<rect id="Icon" rx="36.000000" width="72.000000" height="72.000000" fill="#00B307" fill-opacity="0.100000"/>
	<rect id="stars 1" width="40.000000" height="40.000000" transform="translate(16.000000 16.000000)" fill="#FFFFFF" fill-opacity="0"/>
	<g clip-path="url(#clip604_20469)">
		<path id="Vector" d="M47.13 33.37C46.97 32.87 46.55 32.52 46.04 32.44L39.94 31.56L37.21 26.03C36.98 25.56 36.52 25.27 36 25.27C35.48 25.27 35.01 25.56 34.78 26.03L32.05 31.56L25.95 32.44C25.44 32.52 25.02 32.87 24.86 33.37C24.7 33.86 24.83 34.39 25.2 34.75L29.61 39.06L28.57 45.13C28.48 45.65 28.69 46.15 29.11 46.46C29.35 46.63 29.63 46.72 29.91 46.72C30.12 46.72 30.34 46.67 30.54 46.56L36 43.69L41.45 46.56C41.64 46.66 41.86 46.72 42.08 46.72C42.37 46.72 42.65 46.63 42.88 46.46C43.3 46.15 43.51 45.65 43.42 45.13L43.01 42.73C42.95 42.39 42.62 42.16 42.28 42.21C41.93 42.27 41.7 42.6 41.76 42.94L42.17 45.35C42.18 45.38 42.16 45.42 42.14 45.44C42.09 45.47 42.06 45.46 42.04 45.44L36.29 42.42C36.1 42.33 35.88 42.33 35.7 42.42L29.95 45.44C29.92 45.46 29.88 45.46 29.85 45.44C29.82 45.42 29.81 45.38 29.82 45.35L30.91 38.94C30.95 38.74 30.88 38.53 30.73 38.38L26.08 33.85C26.06 33.83 26.05 33.79 26.06 33.76C26.07 33.72 26.1 33.7 26.13 33.69L32.56 32.76C32.77 32.73 32.94 32.6 33.04 32.41L35.91 26.59C35.94 26.52 36.05 26.52 36.08 26.59L38.95 32.41C39.04 32.6 39.22 32.73 39.43 32.76L45.86 33.69C45.89 33.7 45.92 33.72 45.93 33.76C45.94 33.79 45.93 33.83 45.91 33.85L41.26 38.38C41.11 38.53 41.04 38.74 41.08 38.94L41.42 40.97C41.48 41.31 41.81 41.54 42.15 41.48C42.5 41.42 42.73 41.1 42.67 40.75L42.38 39.06L46.79 34.75C47.16 34.39 47.29 33.86 47.13 33.37Z" fill="#00B307" fill-opacity="1.000000" fill-rule="nonzero"/>
		<path id="Vector" d="M46.04 32.44L39.94 31.56L37.21 26.03C36.98 25.56 36.52 25.27 36 25.27C35.48 25.27 35.01 25.56 34.78 26.03L32.05 31.56L25.95 32.44C25.44 32.52 25.02 32.87 24.86 33.37C24.7 33.86 24.83 34.39 25.2 34.75L29.61 39.06L28.57 45.13C28.48 45.65 28.69 46.15 29.11 46.46C29.35 46.63 29.63 46.72 29.91 46.72C30.12 46.72 30.34 46.67 30.54 46.56L36 43.69L41.45 46.56C41.64 46.66 41.86 46.72 42.08 46.72C42.37 46.72 42.65 46.63 42.88 46.46C43.3 46.15 43.51 45.65 43.42 45.13L43.01 42.73C42.95 42.39 42.62 42.16 42.28 42.21C41.93 42.27 41.7 42.6 41.76 42.94L42.17 45.35C42.18 45.38 42.16 45.42 42.14 45.44C42.09 45.47 42.06 45.46 42.04 45.44L36.29 42.42C36.1 42.33 35.88 42.33 35.7 42.42L29.95 45.44C29.92 45.46 29.88 45.46 29.85 45.44C29.82 45.42 29.81 45.38 29.82 45.35L30.91 38.94C30.95 38.74 30.88 38.53 30.73 38.38L26.08 33.85C26.06 33.83 26.05 33.79 26.06 33.76C26.07 33.72 26.1 33.7 26.13 33.69L32.56 32.76C32.77 32.73 32.94 32.6 33.04 32.41L35.91 26.59C35.94 26.52 36.05 26.52 36.08 26.59L38.95 32.41C39.04 32.6 39.22 32.73 39.43 32.76L45.86 33.69C45.89 33.7 45.92 33.72 45.93 33.76C45.94 33.79 45.93 33.83 45.91 33.85L41.26 38.38C41.11 38.53 41.04 38.74 41.08 38.94L41.42 40.97C41.48 41.31 41.81 41.54 42.15 41.48C42.5 41.42 42.73 41.1 42.67 40.75L42.38 39.06L46.79 34.75C47.16 34.39 47.29 33.86 47.13 33.37C46.97 32.87 46.55 32.52 46.04 32.44Z" stroke="#00B307" stroke-opacity="1.000000" stroke-width="0.300000"/>
		<path id="Vector" d="M19.63 35.36L16.63 35.36C16.28 35.36 16 35.65 16 36C16 36.34 16.28 36.63 16.63 36.63L19.63 36.63C19.98 36.63 20.26 36.34 20.26 36C20.26 35.65 19.98 35.36 19.63 35.36Z" fill="#00B307" fill-opacity="1.000000" fill-rule="nonzero"/>
		<path id="Vector" d="M16.63 35.36C16.28 35.36 16 35.65 16 36C16 36.34 16.28 36.63 16.63 36.63L19.63 36.63C19.98 36.63 20.26 36.34 20.26 36C20.26 35.65 19.98 35.36 19.63 35.36L16.63 35.36Z" stroke="#00B307" stroke-opacity="1.000000" stroke-width="0.300000"/>
		<path id="Vector" d="M55.36 35.36L52.36 35.36C52.01 35.36 51.73 35.65 51.73 36C51.73 36.34 52.01 36.63 52.36 36.63L55.36 36.63C55.71 36.63 55.99 36.34 55.99 36C55.99 35.65 55.71 35.36 55.36 35.36Z" fill="#00B307" fill-opacity="1.000000" fill-rule="nonzero"/>
		<path id="Vector" d="M52.36 35.36C52.01 35.36 51.73 35.65 51.73 36C51.73 36.34 52.01 36.63 52.36 36.63L55.36 36.63C55.71 36.63 55.99 36.34 55.99 36C55.99 35.65 55.71 35.36 55.36 35.36L52.36 35.36Z" stroke="#00B307" stroke-opacity="1.000000" stroke-width="0.300000"/>
		<path id="Vector" d="M23.97 47.12L21.85 49.24C21.61 49.49 21.61 49.89 21.85 50.14C21.98 50.26 22.14 50.32 22.3 50.32C22.46 50.32 22.62 50.26 22.75 50.14L24.87 48.02C25.11 47.77 25.11 47.37 24.87 47.12C24.62 46.88 24.22 46.88 23.97 47.12Z" fill="#00B307" fill-opacity="1.000000" fill-rule="nonzero"/>
		<path id="Vector" d="M21.85 49.24C21.61 49.49 21.61 49.89 21.85 50.14C21.98 50.26 22.14 50.32 22.3 50.32C22.46 50.32 22.62 50.26 22.75 50.14L24.87 48.02C25.11 47.77 25.11 47.37 24.87 47.12C24.62 46.88 24.22 46.88 23.97 47.12L21.85 49.24Z" stroke="#00B307" stroke-opacity="1.000000" stroke-width="0.300000"/>
		<path id="Vector" d="M49.24 21.85L47.12 23.97C46.88 24.22 46.88 24.62 47.12 24.87C47.25 24.99 47.41 25.05 47.57 25.05C47.73 25.05 47.89 24.99 48.02 24.87L50.14 22.75C50.38 22.5 50.38 22.1 50.14 21.85C49.89 21.61 49.49 21.61 49.24 21.85Z" fill="#00B307" fill-opacity="1.000000" fill-rule="nonzero"/>
		<path id="Vector" d="M47.12 23.97C46.88 24.22 46.88 24.62 47.12 24.87C47.25 24.99 47.41 25.05 47.57 25.05C47.73 25.05 47.89 24.99 48.02 24.87L50.14 22.75C50.38 22.5 50.38 22.1 50.14 21.85C49.89 21.61 49.49 21.61 49.24 21.85L47.12 23.97Z" stroke="#00B307" stroke-opacity="1.000000" stroke-width="0.300000"/>
		<path id="Vector" d="M36 51.73C35.65 51.73 35.36 52.02 35.36 52.36L35.36 55.36C35.36 55.71 35.65 56 36 56C36.34 56 36.63 55.71 36.63 55.36L36.63 52.36C36.63 52.02 36.34 51.73 36 51.73Z" fill="#00B307" fill-opacity="1.000000" fill-rule="nonzero"/>
		<path id="Vector" d="M35.36 52.36L35.36 55.36C35.36 55.71 35.65 56 36 56C36.34 56 36.63 55.71 36.63 55.36L36.63 52.36C36.63 52.02 36.34 51.73 36 51.73C35.65 51.73 35.36 52.02 35.36 52.36Z" stroke="#00B307" stroke-opacity="1.000000" stroke-width="0.300000"/>
		<path id="Vector" d="M36 20.26C36.34 20.26 36.63 19.98 36.63 19.63L36.63 16.63C36.63 16.28 36.34 16 36 16C35.65 16 35.36 16.28 35.36 16.63L35.36 19.63C35.36 19.98 35.65 20.26 36 20.26Z" fill="#00B307" fill-opacity="1.000000" fill-rule="nonzero"/>
		<path id="Vector" d="M36.63 19.63L36.63 16.63C36.63 16.28 36.34 16 36 16C35.65 16 35.36 16.28 35.36 16.63L35.36 19.63C35.36 19.98 35.65 20.26 36 20.26C36.34 20.26 36.63 19.98 36.63 19.63Z" stroke="#00B307" stroke-opacity="1.000000" stroke-width="0.300000"/>
		<path id="Vector" d="M48.02 47.12C47.77 46.88 47.37 46.88 47.12 47.12C46.88 47.37 46.88 47.77 47.12 48.02L49.24 50.14C49.37 50.26 49.53 50.32 49.69 50.32C49.85 50.32 50.01 50.26 50.14 50.14C50.38 49.89 50.38 49.49 50.14 49.24L48.02 47.12Z" fill="#00B307" fill-opacity="1.000000" fill-rule="nonzero"/>
		<path id="Vector" d="M47.12 47.12C46.88 47.37 46.88 47.77 47.12 48.02L49.24 50.14C49.37 50.26 49.53 50.32 49.69 50.32C49.85 50.32 50.01 50.26 50.14 50.14C50.38 49.89 50.38 49.49 50.14 49.24L48.02 47.12C47.77 46.88 47.37 46.88 47.12 47.12Z" stroke="#00B307" stroke-opacity="1.000000" stroke-width="0.300000"/>
		<path id="Vector" d="M23.97 24.87C24.1 24.99 24.26 25.05 24.42 25.05C24.58 25.05 24.74 24.99 24.87 24.87C25.11 24.62 25.11 24.22 24.87 23.97L22.75 21.85C22.5 21.61 22.1 21.61 21.85 21.85C21.61 22.1 21.61 22.5 21.85 22.75L23.97 24.87Z" fill="#00B307" fill-opacity="1.000000" fill-rule="nonzero"/>
		<path id="Vector" d="M24.42 25.05C24.58 25.05 24.74 24.99 24.87 24.87C25.11 24.62 25.11 24.22 24.87 23.97L22.75 21.85C22.5 21.61 22.1 21.61 21.85 21.85C21.61 22.1 21.61 22.5 21.85 22.75L23.97 24.87C24.1 24.99 24.26 25.05 24.42 25.05Z" stroke="#00B307" stroke-opacity="1.000000" stroke-width="0.300000"/>
	</g>
</svg>
