<svg width="72.000000" height="72.000000" viewBox="0 0 72 72" fill="none" xmlns="http://www.w3.org/2000/svg" xmlns:xlink="http://www.w3.org/1999/xlink">
	<desc>
			Created with Pixso.
	</desc>
	<defs>
		<clipPath id="clip604_20415">
			<rect id="shopping-bag" width="36.000000" height="36.000000" transform="translate(18.000000 18.000000)" fill="white" fill-opacity="0"/>
		</clipPath>
	</defs>
	<rect id="Icon" rx="36.000000" width="72.000000" height="72.000000" fill="#00B307" fill-opacity="0.100000"/>
	<rect id="shopping-bag" width="36.000000" height="36.000000" transform="translate(18.000000 18.000000)" fill="#FFFFFF" fill-opacity="0"/>
	<g clip-path="url(#clip604_20415)">
		<path id="Vector" d="M50.38 49.2L48.31 25.85C48.27 25.39 47.88 25.04 47.41 25.04L43.04 25.04C43.04 21.15 39.88 18 36 18C32.11 18 28.95 21.15 28.95 25.04L24.58 25.04C24.12 25.04 23.73 25.39 23.68 25.85L21.61 49.2C21.61 49.23 21.61 49.25 21.61 49.28C21.61 51.88 24 54 26.94 54L45.05 54C47.98 54 50.38 51.88 50.38 49.28C50.38 49.25 50.38 49.23 50.38 49.2ZM36 19.78C38.89 19.78 41.25 22.14 41.26 25.04L30.73 25.04C30.74 22.14 33.1 19.78 36 19.78ZM45.05 52.2L26.94 52.2C25 52.2 23.42 50.91 23.4 49.31L25.4 26.83L28.95 26.83L28.95 29.96C28.95 30.46 29.35 30.86 29.84 30.86C30.33 30.86 30.73 30.46 30.73 29.96L30.73 26.83L41.26 26.83L41.26 29.96C41.26 30.46 41.66 30.86 42.15 30.86C42.64 30.86 43.04 30.46 43.04 29.96L43.04 26.83L46.59 26.83L48.59 49.32C48.57 50.91 46.99 52.2 45.05 52.2Z" fill="#00B307" fill-opacity="1.000000" fill-rule="nonzero"/>
		<path id="Vector" d="M39.71 36.61L34.44 41.89L32.28 39.73C31.93 39.38 31.37 39.38 31.02 39.73C30.67 40.08 30.67 40.65 31.02 41L33.8 43.79C33.98 43.96 34.21 44.05 34.44 44.05C34.67 44.05 34.89 43.96 35.07 43.79L40.98 37.88C41.33 37.53 41.33 36.96 40.98 36.61C40.63 36.27 40.06 36.27 39.71 36.61Z" fill="#00B307" fill-opacity="1.000000" fill-rule="nonzero"/>
	</g>
</svg>
