<svg width="14.699982" height="13.606934" viewBox="0 0 14.7 13.6069" fill="none" xmlns="http://www.w3.org/2000/svg" xmlns:xlink="http://www.w3.org/1999/xlink">
	<desc>
			Created with Pixso.
	</desc>
	<defs/>
	<path id="Vector" d="M7.83 12.73C7.78 12.81 7.71 12.88 7.62 12.93C7.54 12.98 7.44 13 7.34 13C7.25 13 7.15 12.98 7.07 12.93C6.98 12.88 6.91 12.81 6.86 12.73L5.82 10.99C5.77 10.91 5.7 10.84 5.62 10.79C5.53 10.75 5.44 10.72 5.34 10.72L1.16 10.72C1.01 10.72 0.87 10.66 0.76 10.56C0.65 10.45 0.6 10.31 0.6 10.16L0.6 1.16C0.6 1.01 0.65 0.87 0.76 0.76C0.87 0.65 1.01 0.6 1.16 0.6L13.53 0.6C13.68 0.6 13.82 0.65 13.93 0.76C14.04 0.87 14.1 1.01 14.1 1.16L14.1 10.16C14.1 10.31 14.04 10.45 13.93 10.56C13.82 10.66 13.68 10.72 13.53 10.72L9.35 10.72C9.25 10.72 9.16 10.75 9.07 10.79C8.99 10.84 8.92 10.91 8.87 10.99L7.83 12.73Z" stroke="#B3B3B3" stroke-opacity="1.000000" stroke-width="1.200000" stroke-linejoin="round"/>
</svg>
