<svg width="18.000000" height="18.000000" viewBox="0 0 18 18" fill="none" xmlns="http://www.w3.org/2000/svg" xmlns:xlink="http://www.w3.org/1999/xlink">
	<desc>
			Created with Pixso.
	</desc>
	<defs>
		<clipPath id="clip9_11673">
			<rect id="instagram 1" width="18.000000" height="18.000000" fill="white" fill-opacity="0"/>
		</clipPath>
	</defs>
	<rect id="instagram 1" width="18.000000" height="18.000000" fill="#FFFFFF" fill-opacity="0"/>
	<g clip-path="url(#clip9_11673)">
		<path id="Vector" d="M17.98 5.29C17.94 4.33 17.78 3.67 17.56 3.1C17.33 2.5 16.98 1.96 16.52 1.51C16.07 1.05 15.52 0.69 14.93 0.47C14.35 0.25 13.7 0.09 12.74 0.05C11.78 0.01 11.47 0 9.03 0C6.58 0 6.28 0.01 5.32 0.05C4.36 0.09 3.7 0.24 3.14 0.47C2.53 0.69 1.99 1.05 1.54 1.51C1.08 1.96 0.73 2.5 0.5 3.1C0.28 3.67 0.13 4.33 0.08 5.28C0.04 6.25 0.03 6.55 0.03 9C0.03 11.44 0.04 11.75 0.08 12.71C0.12 13.66 0.28 14.32 0.5 14.89C0.73 15.5 1.08 16.04 1.54 16.49C1.99 16.94 2.53 17.3 3.13 17.52C3.7 17.75 4.36 17.9 5.32 17.94C6.28 17.98 6.58 18 9.02 18C11.47 18 11.77 17.98 12.73 17.94C13.69 17.9 14.35 17.75 14.92 17.52C16.13 17.06 17.08 16.1 17.55 14.89C17.77 14.32 17.93 13.66 17.97 12.71C18.01 11.75 18.02 11.44 18.02 9C18.02 6.55 18.02 6.25 17.98 5.29ZM16.36 12.64C16.32 13.52 16.17 13.99 16.05 14.31C15.74 15.09 15.12 15.71 14.34 16.02C14.02 16.14 13.54 16.29 12.67 16.32C11.72 16.37 11.43 16.38 9.03 16.38C6.63 16.38 6.34 16.37 5.4 16.32C4.52 16.29 4.04 16.14 3.73 16.02C3.34 15.87 2.98 15.64 2.69 15.34C2.39 15.05 2.16 14.7 2.02 14.31C1.9 13.99 1.75 13.52 1.71 12.64C1.67 11.69 1.66 11.41 1.66 9C1.66 6.6 1.67 6.31 1.71 5.37C1.75 4.49 1.9 4.01 2.02 3.7C2.16 3.31 2.39 2.95 2.7 2.66C2.99 2.37 3.34 2.14 3.73 1.99C4.05 1.87 4.52 1.72 5.4 1.68C6.35 1.64 6.63 1.63 9.04 1.63C11.44 1.63 11.73 1.64 12.67 1.68C13.55 1.72 14.03 1.87 14.34 1.99C14.73 2.14 15.09 2.37 15.38 2.66C15.67 2.96 15.9 3.31 16.05 3.7C16.17 4.01 16.32 4.49 16.36 5.37C16.4 6.32 16.41 6.6 16.41 9C16.41 11.41 16.4 11.69 16.36 12.64Z" fill="#4D4D4D" fill-opacity="1.000000" fill-rule="nonzero"/>
		<path id="Vector" d="M9.03 4.37C6.48 4.37 4.4 6.44 4.4 9C4.4 11.55 6.48 13.62 9.03 13.62C11.58 13.62 13.65 11.55 13.65 9C13.65 6.44 11.58 4.37 9.03 4.37ZM9.03 12C7.37 12 6.03 10.65 6.03 9C6.03 7.34 7.37 6 9.03 6C10.68 6 12.03 7.34 12.03 9C12.03 10.65 10.68 12 9.03 12Z" fill="#4D4D4D" fill-opacity="1.000000" fill-rule="nonzero"/>
		<path id="Vector" d="M14.91 4.19C14.91 4.79 14.43 5.27 13.84 5.27C13.24 5.27 12.76 4.79 12.76 4.19C12.76 3.59 13.24 3.11 13.84 3.11C14.43 3.11 14.91 3.59 14.91 4.19Z" fill="#4D4D4D" fill-opacity="1.000000" fill-rule="nonzero"/>
	</g>
</svg>
