<svg width="18.000000" height="18.000000" viewBox="0 0 18 18" fill="none" xmlns="http://www.w3.org/2000/svg" xmlns:xlink="http://www.w3.org/1999/xlink">
	<desc>
			Created with Pixso.
	</desc>
	<defs>
		<clipPath id="clip9_11667">
			<rect id="pinterest 1" width="18.000000" height="18.000000" fill="white" fill-opacity="0"/>
		</clipPath>
	</defs>
	<rect id="pinterest 1" width="18.000000" height="18.000000" fill="#FFFFFF" fill-opacity="0"/>
	<g clip-path="url(#clip9_11667)">
		<path id="Vector" d="M9.24 0C4.31 0 1.68 3.16 1.68 6.6C1.68 8.2 2.58 10.2 4.01 10.83C4.22 10.93 4.34 10.88 4.39 10.68C4.43 10.53 4.62 9.79 4.71 9.45C4.74 9.33 4.72 9.24 4.63 9.13C4.16 8.58 3.78 7.58 3.78 6.65C3.78 4.24 5.69 1.91 8.95 1.91C11.76 1.91 13.73 3.73 13.73 6.35C13.73 9.3 12.16 11.34 10.13 11.34C9.01 11.34 8.17 10.46 8.44 9.37C8.76 8.07 9.39 6.67 9.39 5.74C9.39 4.9 8.91 4.2 7.94 4.2C6.8 4.2 5.87 5.33 5.87 6.85C5.87 7.82 6.21 8.47 6.21 8.47C6.21 8.47 5.08 13.05 4.87 13.9C4.52 15.35 4.92 17.69 4.95 17.89C4.98 18 5.1 18.03 5.17 17.94C5.28 17.8 6.65 15.84 7.03 14.43C7.17 13.92 7.75 11.83 7.75 11.83C8.12 12.52 9.21 13.09 10.37 13.09C13.82 13.09 16.31 10.06 16.31 6.3C16.29 2.69 13.21 0 9.24 0Z" fill="#4D4D4D" fill-opacity="1.000000" fill-rule="nonzero"/>
	</g>
</svg>
