<svg width="18.000000" height="18.000000" viewBox="0 0 18 18" fill="none" xmlns="http://www.w3.org/2000/svg" xmlns:xlink="http://www.w3.org/1999/xlink">
	<desc>
			Created with Pixso.
	</desc>
	<defs>
		<clipPath id="clip9_11663">
			<rect id="twitter 1" width="18.000000" height="18.000000" fill="white" fill-opacity="0"/>
		</clipPath>
	</defs>
	<rect id="twitter 1" width="18.000000" height="18.000000" fill="#FFFFFF" fill-opacity="0"/>
	<g clip-path="url(#clip9_11663)">
		<path id="Vector" d="M18 3.41C17.33 3.71 16.61 3.9 15.87 4C16.63 3.54 17.22 2.82 17.49 1.96C16.78 2.38 15.99 2.68 15.15 2.85C14.47 2.13 13.51 1.68 12.46 1.68C10.41 1.68 8.77 3.34 8.77 5.37C8.77 5.67 8.79 5.95 8.85 6.22C5.79 6.07 3.07 4.6 1.25 2.36C0.93 2.91 0.74 3.54 0.74 4.22C0.74 5.5 1.4 6.63 2.38 7.29C1.79 7.28 1.21 7.1 0.71 6.83C0.71 6.84 0.71 6.86 0.71 6.87C0.71 8.67 1.99 10.16 3.67 10.5C3.37 10.58 3.04 10.62 2.7 10.62C2.47 10.62 2.23 10.61 2.01 10.56C2.48 12.02 3.84 13.09 5.45 13.13C4.2 14.11 2.6 14.7 0.88 14.7C0.58 14.7 0.29 14.69 0 14.65C1.63 15.71 3.57 16.31 5.66 16.31C12.45 16.31 16.16 10.68 16.16 5.81C16.16 5.64 16.15 5.49 16.15 5.33C16.88 4.81 17.49 4.16 18 3.41Z" fill="#4D4D4D" fill-opacity="1.000000" fill-rule="nonzero"/>
	</g>
</svg>
