<svg width="20.000000" height="20.000000" viewBox="0 0 20 20" fill="none" xmlns="http://www.w3.org/2000/svg" xmlns:xlink="http://www.w3.org/1999/xlink">
	<desc>
			Created with Pixso.
	</desc>
	<defs>
		<clipPath id="clip460_40702">
			<rect id="eye-open 1" rx="-0.500000" width="19.000000" height="19.000000" transform="translate(0.500000 0.500000)" fill="white" fill-opacity="0"/>
		</clipPath>
	</defs>
	<rect id="eye-open 1" rx="-0.500000" width="19.000000" height="19.000000" transform="translate(0.500000 0.500000)" fill="#FFFFFF" fill-opacity="0"/>
	<g clip-path="url(#clip460_40702)">
		<path id="Vector" d="M10 4.16C15.3 4.16 18.33 10 18.33 10C18.33 10 15.3 15.83 10 15.83C4.69 15.83 1.66 10 1.66 10C1.66 10 4.69 4.16 10 4.16Z" stroke="#1A1A1A" stroke-opacity="1.000000" stroke-width="1.500000" stroke-linejoin="round"/>
		<path id="Vector" d="M11.76 11.76C12.23 11.29 12.5 10.66 12.5 10C12.5 9.33 12.23 8.7 11.76 8.23C11.29 7.76 10.66 7.5 10 7.5C9.33 7.5 8.7 7.76 8.23 8.23C7.76 8.7 7.5 9.33 7.5 10C7.5 10.66 7.76 11.29 8.23 11.76C8.7 12.23 9.33 12.5 10 12.5C10.66 12.5 11.29 12.23 11.76 11.76Z" stroke="#1A1A1A" stroke-opacity="1.000000" stroke-width="1.500000" stroke-linejoin="round"/>
	</g>
</svg>
